<svg width="15" height="12" viewBox="0 0 15 12" fill="none" xmlns="http://www.w3.org/2000/svg">
<path d="M8.83333 0.5H5.5L3.83333 2.5H1.83333C1.47971 2.5 1.14057 2.64048 0.890524 2.89052C0.640476 3.14057 0.5 3.47971 0.5 3.83333V9.83333C0.5 10.187 0.640476 10.5261 0.890524 10.7761C1.14057 11.0262 1.47971 11.1667 1.83333 11.1667H12.5C12.8536 11.1667 13.1928 11.0262 13.4428 10.7761C13.6929 10.5261 13.8333 10.187 13.8333 9.83333V3.83333C13.8333 3.47971 13.6929 3.14057 13.4428 2.89052C13.1928 2.64048 12.8536 2.5 12.5 2.5H10.5L8.83333 0.5Z" stroke="#020817" stroke-linecap="round" stroke-linejoin="round"/>
<path d="M7.16667 8.5C8.27124 8.5 9.16667 7.60457 9.16667 6.5C9.16667 5.39543 8.27124 4.5 7.16667 4.5C6.0621 4.5 5.16667 5.39543 5.16667 6.5C5.16667 7.60457 6.0621 8.5 7.16667 8.5Z" stroke="#020817" stroke-linecap="round" stroke-linejoin="round"/>
</svg>
