<svg width="16" height="16" viewBox="0 0 16 16" fill="none" xmlns="http://www.w3.org/2000/svg">
<path d="M10.1331 9.03375C11.1814 9.03375 12.0571 9.77841 12.2571 10.7681L12.344 11.1998L12.2571 11.6314C12.0572 12.6212 11.1814 13.3668 10.1331 13.3668C9.0848 13.3666 8.20989 12.6211 8.01001 11.6314L7.92212 11.1998L8.01001 10.7681C8.20996 9.77853 9.08487 9.03388 10.1331 9.03375ZM10.1331 9.10016C8.97346 9.1003 8.03359 10.0402 8.03345 11.1998C8.03345 12.3594 8.97337 13.3002 10.1331 13.3004C11.2928 13.3004 12.2336 12.3595 12.2336 11.1998C12.2335 10.0401 11.2927 9.10016 10.1331 9.10016ZM1.59985 11.1666H7.47095L7.80591 11.1998L7.47095 11.233H1.59985C1.58153 11.2329 1.56665 11.2181 1.56665 11.1998C1.56679 11.1815 1.58162 11.1666 1.59985 11.1666ZM12.7961 11.1666H14.3997C14.4179 11.1666 14.4327 11.1815 14.4329 11.1998C14.4329 11.2181 14.418 11.233 14.3997 11.233H12.7961L12.4602 11.1998L12.7961 11.1666ZM5.86646 2.63336C6.91483 2.63336 7.79058 3.37891 7.99048 4.36871L8.07642 4.79938L7.99048 5.23199C7.79052 6.22171 6.91477 6.96637 5.86646 6.96637C4.8182 6.96628 3.94235 6.22168 3.74243 5.23199L3.65552 4.79938L3.74243 4.36871C3.94232 3.37897 4.81817 2.63345 5.86646 2.63336ZM5.86646 2.69977C4.70674 2.69987 3.76685 3.64062 3.76685 4.80035C3.76702 5.95994 4.70685 6.89986 5.86646 6.89996C7.02615 6.89996 7.96687 5.96001 7.96704 4.80035C7.96704 3.64055 7.02626 2.69977 5.86646 2.69977ZM1.59985 4.76715H3.20435L3.53931 4.79938L3.20435 4.83356H1.59985C1.58161 4.83349 1.56682 4.81857 1.56665 4.80035C1.56665 4.78199 1.58151 4.76722 1.59985 4.76715ZM8.52954 4.76715H14.3997C14.418 4.76715 14.4329 4.78197 14.4329 4.80035C14.4327 4.81858 14.4179 4.83356 14.3997 4.83356H8.52954L8.19263 4.79938L8.52954 4.76715Z" fill="#09090B" stroke="#18181B"/>
</svg>
